<svg id="visual" viewBox="0 0 900 600" width="900" height="600" xmlns="http://www.w3.org/2000/svg" xmlns:xlink="http://www.w3.org/1999/xlink" version="1.1"><rect width="900" height="600" fill="#ffffff"></rect><g><g transform="translate(163 175)"><path d="M0 -65.7L56.9 -32.8L56.9 32.8L0 65.7L-56.9 32.8L-56.9 -32.8Z" fill="none" stroke="#eceeef" stroke-width="2"></path></g><g transform="translate(150 367)"><path d="M0 -41L35.5 -20.5L35.5 20.5L0 41L-35.5 20.5L-35.5 -20.5Z" fill="none" stroke="#eceeef" stroke-width="2"></path></g><g transform="translate(5 43)"><path d="M0 -36L31.2 -18L31.2 18L0 36L-31.2 18L-31.2 -18Z" fill="none" stroke="#eceeef" stroke-width="2"></path></g><g transform="translate(574 596)"><path d="M0 -50L43.3 -25L43.3 25L0 50L-43.3 25L-43.3 -25Z" stroke="#eceeef" fill="none" stroke-width="2"></path></g><g transform="translate(686 122)"><path d="M0 -46L39.8 -23L39.8 23L0 46L-39.8 23L-39.8 -23Z" stroke="#eceeef" fill="none" stroke-width="2"></path></g><g transform="translate(439 47)"><path d="M0 -34L29.4 -17L29.4 17L0 34L-29.4 17L-29.4 -17Z" stroke="#eceeef" fill="none" stroke-width="2"></path></g><g transform="translate(704 516)"><path d="M0 -62L53.7 -31L53.7 31L0 62L-53.7 31L-53.7 -31Z" stroke="#eceeef" fill="none" stroke-width="2"></path></g><g transform="translate(292 471)"><path d="M0 -55L47.6 -27.5L47.6 27.5L0 55L-47.6 27.5L-47.6 -27.5Z" stroke="#eceeef" fill="none" stroke-width="2"></path></g><g transform="translate(602 405)"><path d="M0 -41L35.5 -20.5L35.5 20.5L0 41L-35.5 20.5L-35.5 -20.5Z" stroke="#eceeef" fill="none" stroke-width="2"></path></g><g transform="translate(813 398)"><path d="M0 -45L39 -22.5L39 22.5L0 45L-39 22.5L-39 -22.5Z" stroke="#eceeef" fill="none" stroke-width="2"></path></g><g transform="translate(171 13)"><path d="M0 -40L34.6 -20L34.6 20L0 40L-34.6 20L-34.6 -20Z" stroke="#eceeef" fill="none" stroke-width="2"></path></g><g transform="translate(846 529)"><path d="M0 -51L44.2 -25.5L44.2 25.5L0 51L-44.2 25.5L-44.2 -25.5Z" stroke="#eceeef" fill="none" stroke-width="2"></path></g><g transform="translate(845 266)"><path d="M0 -63L54.6 -31.5L54.6 31.5L0 63L-54.6 31.5L-54.6 -31.5Z" stroke="#eceeef" fill="none" stroke-width="2"></path></g><g transform="translate(367 227)"><path d="M0 -39L33.8 -19.5L33.8 19.5L0 39L-33.8 19.5L-33.8 -19.5Z" stroke="#eceeef" fill="none" stroke-width="2"></path></g><g transform="translate(502 317)"><path d="M0 -58L50.2 -29L50.2 29L0 58L-50.2 29L-50.2 -29Z" stroke="#eceeef" fill="none" stroke-width="2"></path></g><g transform="translate(582 16)"><path d="M0 -52L45 -26L45 26L0 52L-45 26L-45 -26Z" stroke="#eceeef" fill="none" stroke-width="2"></path></g><g transform="translate(379 593)"><path d="M0 -60L52 -30L52 30L0 60L-52 30L-52 -30Z" stroke="#eceeef" fill="none" stroke-width="2"></path></g><g transform="translate(3 355)"><path d="M0 -33L28.6 -16.5L28.6 16.5L0 33L-28.6 16.5L-28.6 -16.5Z" stroke="#eceeef" fill="none" stroke-width="2"></path></g><g transform="translate(693 303)"><path d="M0 -54L46.8 -27L46.8 27L0 54L-46.8 27L-46.8 -27Z" stroke="#eceeef" fill="none" stroke-width="2"></path></g><g transform="translate(51 527)"><path d="M0 -43L37.2 -21.5L37.2 21.5L0 43L-37.2 21.5L-37.2 -21.5Z" stroke="#eceeef" fill="none" stroke-width="2"></path></g><g transform="translate(495 481)"><path d="M0 -43L37.2 -21.5L37.2 21.5L0 43L-37.2 21.5L-37.2 -21.5Z" stroke="#eceeef" fill="none" stroke-width="2"></path></g><g transform="translate(825 121)"><path d="M0 -59L51.1 -29.5L51.1 29.5L0 59L-51.1 29.5L-51.1 -29.5Z" stroke="#eceeef" fill="none" stroke-width="2"></path></g><g transform="translate(202 579)"><path d="M0 -59L51.1 -29.5L51.1 29.5L0 59L-51.1 29.5L-51.1 -29.5Z" stroke="#eceeef" fill="none" stroke-width="2"></path></g><g transform="translate(304 2)"><path d="M0 -43L37.2 -21.5L37.2 21.5L0 43L-37.2 21.5L-37.2 -21.5Z" stroke="#eceeef" fill="none" stroke-width="2"></path></g><g transform="translate(559 160)"><path d="M0 -34L29.4 -17L29.4 17L0 34L-29.4 17L-29.4 -17Z" stroke="#eceeef" fill="none" stroke-width="2"></path></g><g transform="translate(30 175)"><path d="M0 -34L29.4 -17L29.4 17L0 34L-29.4 17L-29.4 -17Z" stroke="#eceeef" fill="none" stroke-width="2"></path></g><g transform="translate(285 340)"><path d="M0 -35L30.3 -17.5L30.3 17.5L0 35L-30.3 17.5L-30.3 -17.5Z" stroke="#eceeef" fill="none" stroke-width="2"></path></g></g></svg>