<?xml version="1.0" encoding="UTF-8"?>
<svg version="1.1" xmlns="http://www.w3.org/2000/svg" width="500" height="500">
<path d="M0 0 C0.78114166 0.00215515 1.56228333 0.0043103 2.36709595 0.00653076 C59.42574159 0.25759316 111.7397658 21.84364538 154.60546875 58.91796875 C156.21850775 60.31259908 157.84147034 61.69619556 159.48828125 63.05078125 C163.22594626 66.12544581 166.38900811 69.4546025 169.515625 73.1484375 C170.76295401 74.60016076 172.0453413 76.02242838 173.359375 77.4140625 C192.43883844 97.67728827 205.99082675 122.67745649 216.375 148.3125 C216.62491699 148.9199707 216.87483398 149.52744141 217.13232422 150.15332031 C227.58122781 175.74220151 231.60246789 202.98027311 231.625 230.5 C231.62567474 231.24616577 231.62634949 231.99233154 231.62704468 232.7611084 C231.54305394 291.62998308 208.75212283 348.15677762 167.96386719 390.65625 C166.88921194 391.77648067 165.8196715 392.90163693 164.75488281 394.03125 C155.73246341 403.5812651 146.0355209 411.65033055 135.375 419.3125 C134.78734863 419.74481934 134.19969727 420.17713867 133.59423828 420.62255859 C86.71217756 454.9447399 25.21098388 468.70877425 -32.05688477 460.79077148 C-67.88617658 455.21882695 -101.99030717 442.36990066 -131.625 421.3125 C-132.64062012 420.59562012 -132.64062012 420.59562012 -133.67675781 419.86425781 C-143.31574785 413.00252723 -152.14006205 405.54657437 -160.625 397.3125 C-161.16753418 396.79574707 -161.71006836 396.27899414 -162.26904297 395.74658203 C-170.56046392 387.84431548 -177.79580174 379.49933658 -184.625 370.3125 C-185.0487793 369.75481934 -185.47255859 369.19713867 -185.90917969 368.62255859 C-193.16909791 359.06078313 -199.09894395 348.96021406 -204.625 338.3125 C-205.04281738 337.51489258 -205.46063477 336.71728516 -205.89111328 335.89550781 C-217.23888685 313.98587805 -224.62676499 290.63879016 -228.625 266.3125 C-228.75487305 265.53132813 -228.88474609 264.75015625 -229.01855469 263.9453125 C-238.23213588 205.10227297 -221.45524293 143.50497242 -187.1875 95.39404297 C-182.43663511 88.88468113 -177.26257071 82.77573202 -171.90576172 76.76074219 C-170.1955312 74.82687116 -168.54099273 72.84699139 -166.875 70.875 C-164.05861769 67.67178927 -161.01052608 64.88661595 -157.75390625 62.13671875 C-156.31447784 60.90330028 -154.90567879 59.63336433 -153.52734375 58.33203125 C-141.32357663 46.8399761 -127.19102219 37.5255926 -112.625 29.3125 C-112.0371875 28.97412109 -111.449375 28.63574219 -110.84375 28.28710938 C-90.92244128 16.86293782 -68.90576041 9.32896489 -46.5 4.5625 C-45.57155273 4.36374268 -44.64310547 4.16498535 -43.68652344 3.96020508 C-29.16886918 1.02725674 -14.77940289 -0.07422547 0 0 Z " fill="#010101" transform="translate(249.625,18.6875)"/>
<path d="M0 0 C23.54074965 -1.03203475 48.10339775 1.50895388 70.18554688 10.14892578 C71.54172119 10.6693042 71.54172119 10.6693042 72.92529297 11.20019531 C85.68595955 16.14652576 97.8415209 21.45409522 109.18554688 29.14892578 C109.78544434 29.55111328 110.3853418 29.95330078 111.00341797 30.36767578 C118.08839195 35.15456768 124.69363371 40.22814792 130.95507812 46.07080078 C133.00337309 47.97919469 135.10590284 49.78517304 137.24804688 51.58642578 C141.28254299 55.08682363 144.7801454 59.00480181 148.30273438 63.01220703 C149.55302858 64.43110937 150.84828859 65.8116675 152.18554688 67.14892578 C151.96362816 69.5514371 151.50772337 70.80006011 149.86523438 72.57861328 C149.2696875 73.05556641 148.67414063 73.53251953 148.06054688 74.02392578 C143.88163298 77.51384312 139.90127114 81.17154555 135.93554688 84.89892578 C130.37058892 90.11400767 124.77543111 95.29195387 119.14648438 100.43798828 C115.982989 103.33099107 112.83387612 106.23943852 109.68554688 109.14892578 C90.84390221 126.54922544 90.84390221 126.54922544 83.18554688 133.14892578 C80.0653142 130.87966565 77.56520802 128.48085619 75.12304688 125.52392578 C62.10728344 110.46482744 43.77428268 100.57360691 24.18554688 97.14892578 C-2.77272482 95.35767849 -26.57180748 100.9282566 -47.37695312 118.71142578 C-63.19600633 133.650389 -73.43532561 154.56468642 -74.23461914 176.42651367 C-74.4148652 198.23628721 -68.95843555 218.19882259 -54.81445312 235.14892578 C-54.18152344 235.91978516 -53.54859375 236.69064453 -52.89648438 237.48486328 C-50.07713736 240.81517937 -47.37932547 243.60701681 -43.81445312 246.14892578 C-45.11120381 248.95307268 -46.52898724 251.17693064 -48.56445312 253.49658203 C-49.09039062 254.10179687 -49.61632812 254.70701172 -50.15820312 255.33056641 C-50.97804687 256.2615918 -50.97804687 256.2615918 -51.81445312 257.21142578 C-52.89926044 258.45102282 -53.98264895 259.69186327 -55.06445312 260.93408203 C-55.54398437 261.47943604 -56.02351563 262.02479004 -56.51757812 262.58666992 C-58.01057056 264.32973102 -58.01057056 264.32973102 -59.81445312 267.14892578 C-64.13183848 266.68854109 -66.54605936 263.91451562 -69.43945312 260.96142578 C-69.96506836 260.42678711 -70.49068359 259.89214844 -71.03222656 259.34130859 C-91.11750435 238.38328488 -102.26036363 210.26492357 -102.12695312 181.33642578 C-102.12276367 180.09755615 -102.11857422 178.85868652 -102.11425781 177.58227539 C-102.00811972 169.01049551 -101.34400361 161.37270248 -98.81445312 153.14892578 C-98.54761719 152.10865234 -98.28078125 151.06837891 -98.00585938 149.99658203 C-90.37418955 122.01379267 -70.48456147 97.77988645 -45.66308594 83.19677734 C-37.44256991 78.53718215 -28.98833832 74.98869129 -19.93945312 72.27392578 C-19.26229248 72.07057617 -18.58513184 71.86722656 -17.88745117 71.65771484 C-8.69235678 69.07057869 0.49646599 68.96694034 9.99804688 68.96142578 C11.09697266 68.94917969 12.19589844 68.93693359 13.328125 68.92431641 C38.91464185 68.87908391 63.28898612 78.17315788 83.18554688 94.14892578 C88.47771628 91.08503823 92.39728891 87.03720084 96.65820312 82.68017578 C99.46707912 79.8669584 102.4056778 77.27147598 105.42382812 74.68798828 C107.79707604 72.61468522 109.99241949 70.41058839 112.18554688 68.14892578 C110.77569245 63.91936251 107.7079984 62.15239712 104.24804688 59.58642578 C103.18082397 58.79341064 103.18082397 58.79341064 102.09204102 57.984375 C89.76863709 49.0353163 76.49385371 42.28760802 62.18554688 37.14892578 C60.98671875 36.69775391 59.78789062 36.24658203 58.55273438 35.78173828 C43.68434632 30.44679649 28.69313255 28.62905513 12.95336914 28.7578125 C10.61936293 28.77395125 8.28708093 28.75781028 5.953125 28.73876953 C-7.78286623 28.71870175 -21.16726255 30.49157323 -34.25195312 34.83642578 C-35.0328833 35.09133789 -35.81381348 35.34625 -36.6184082 35.60888672 C-73.33335555 47.95661587 -106.25477881 73.68541693 -124.24707031 108.43725586 C-127.76598468 115.52552578 -130.97349405 122.76243219 -133.81445312 130.14892578 C-134.08773437 130.85533203 -134.36101562 131.56173828 -134.64257812 132.28955078 C-136.45819823 137.35010896 -137.69489508 142.55013811 -138.93945312 147.77392578 C-139.11033447 148.49088623 -139.28121582 149.20784668 -139.45727539 149.9465332 C-139.61897217 150.64496338 -139.78066895 151.34339355 -139.94726562 152.06298828 C-140.0905127 152.68125488 -140.23375977 153.29952148 -140.38134766 153.93652344 C-141.41745721 159.22920932 -141.94174699 164.36308362 -141.94726562 169.75439453 C-141.94855469 170.98609375 -141.94984375 172.21779297 -141.95117188 173.48681641 C-141.94537109 175.39237305 -141.94537109 175.39237305 -141.93945312 177.33642578 C-141.94332031 178.58746094 -141.9471875 179.83849609 -141.95117188 181.12744141 C-141.93869097 193.11534826 -141.14441776 204.27634629 -138.12695312 215.89892578 C-137.85786133 216.94459717 -137.58876953 217.99026855 -137.31152344 219.06762695 C-129.93923081 247.0019061 -116.08755204 270.58115973 -95.81445312 291.14892578 C-94.98945313 291.98681641 -94.16445312 292.82470703 -93.31445312 293.68798828 C-64.8707597 321.0043402 -26.59598878 333.66631809 12.24804688 333.77392578 C13.05154572 333.78091492 13.85504456 333.78790405 14.68289185 333.79510498 C30.35518965 333.87088533 45.5745319 331.35157734 60.31054688 325.89892578 C61.12910156 325.60300537 61.94765625 325.30708496 62.79101562 325.00219727 C75.81927917 320.18078327 87.95501707 314.39869834 99.18554688 306.14892578 C99.73758789 305.74351562 100.28962891 305.33810547 100.85839844 304.92041016 C108.70723567 299.15821668 108.70723567 299.15821668 115.74804688 292.46142578 C116.55242187 291.69830078 117.35679687 290.93517578 118.18554688 290.14892578 C122.08630389 290.35466191 124.23897085 292.71037483 126.99804688 295.27392578 C127.86816406 296.07958984 128.73828125 296.88525391 129.63476562 297.71533203 C132.87452257 300.80624869 136.06613971 303.93655615 139.18554688 307.14892578 C131.52947214 325.71807943 98.70596386 341.03134707 81.32568359 348.3046875 C36.21669708 366.0992204 -12.58608863 367.29645588 -57.81445312 349.14892578 C-103.39611779 329.17423571 -138.61118428 294.16430584 -157.81445312 248.14892578 C-174.06912053 206.23259809 -175.05802675 158.11820874 -158.81445312 116.14892578 C-158.56501953 115.4919873 -158.31558594 114.83504883 -158.05859375 114.15820312 C-150.36594385 94.24926923 -138.30416612 76.02489522 -123.86914062 60.39111328 C-122.09755556 58.45786266 -120.41662971 56.48603244 -118.75195312 54.46142578 C-115.44486799 50.59867865 -111.73571804 47.37560271 -107.81445312 44.14892578 C-106.83863281 43.33552734 -105.8628125 42.52212891 -104.85742188 41.68408203 C-91.1308865 30.44862066 -76.20748491 20.96321504 -59.81445312 14.14892578 C-58.62464844 13.63974609 -57.43484375 13.13056641 -56.20898438 12.60595703 C-38.57175958 5.35296366 -19.01773266 1.00631653 0 0 Z " fill="#FCFCFC" transform="translate(240.814453125,68.85107421875)"/>
<path d="M0 0 C2.875 0.9375 2.875 0.9375 4.875 3.9375 C4.51136375 8.76937399 3.31801855 13.1244971 1.80541992 17.71142578 C1.59712051 18.34815216 1.38882111 18.98487854 1.17420959 19.64089966 C0.49083705 21.72364259 -0.20131772 23.80332609 -0.89453125 25.8828125 C-1.37698282 27.3404939 -1.85921288 28.79824864 -2.3412323 30.256073 C-3.35002962 33.30183822 -4.3635754 36.34597471 -5.38012695 39.38916016 C-6.67915601 43.28024039 -7.96301053 47.17614122 -9.24295521 51.07353401 C-10.23344482 54.08203668 -11.23356778 57.08727103 -12.2364254 60.09167099 C-12.71378554 61.52661579 -13.18780151 62.96267776 -13.65833473 64.39987564 C-14.3179727 66.41086622 -14.99089909 68.41693749 -15.66723633 70.42236328 C-16.04616531 71.5626297 -16.4250943 72.70289612 -16.81550598 73.87771606 C-18.2097759 77.13558869 -19.62622298 79.42423801 -22.125 81.9375 C-25.8125 81.875 -25.8125 81.875 -29.125 80.9375 C-31.43586189 76.31577622 -30.13664745 71.17387598 -28.57633972 66.47303772 C-28.3487648 65.82322433 -28.12118988 65.17341095 -27.88671875 64.50390625 C-27.65008011 63.80079819 -27.41344147 63.09769012 -27.16963196 62.37327576 C-26.39436185 60.07848314 -25.60398781 57.7892446 -24.8125 55.5 C-24.26812521 53.90455429 -23.724515 52.3088475 -23.18164062 50.71289062 C-22.0617741 47.42540508 -20.93566669 44.14013904 -19.80615234 40.85595703 C-18.43787333 36.86769497 -17.09869543 32.87054819 -15.77388 28.86766052 C-14.79799476 25.92089649 -13.812512 22.97739547 -12.8253479 20.03439331 C-12.36117133 18.64461438 -11.90065472 17.25360729 -11.44393921 15.86135864 C-10.80719755 13.92467471 -10.15395723 11.99343876 -9.5 10.0625 C-9.13648438 8.97195312 -8.77296875 7.88140625 -8.3984375 6.7578125 C-6.47113321 2.48936559 -4.87136861 -0.09742737 0 0 Z " fill="#F7F7F7" transform="translate(282.125,218.0625)"/>
<path d="M0 0 C4.11199512 1.13973945 6.38043674 3.32087903 9.27856445 6.29394531 C10.0946241 7.10638702 10.0946241 7.10638702 10.9271698 7.9352417 C12.07015581 9.079204 13.20697155 10.22936084 14.33789062 11.38525391 C16.06782873 13.14954228 17.82053717 14.88853528 19.57739258 16.62597656 C20.68755582 17.74303759 21.79632882 18.86148236 22.90356445 19.98144531 C23.42642532 20.49934631 23.94928619 21.01724731 24.48799133 21.55084229 C27.34046072 24.49721067 29.2807982 26.6944049 29.2590332 30.90332031 C28.16162109 32.79223633 28.16162109 32.79223633 26.41918945 34.59472656 C25.76966309 35.28066895 25.12013672 35.96661133 24.45092773 36.67333984 C23.72760254 37.4092334 23.00427734 38.14512695 22.2590332 38.90332031 C21.51121582 39.69722168 20.76339844 40.49112305 19.99291992 41.30908203 C17.58924245 43.84886358 15.14789496 46.34709409 12.6965332 48.84082031 C11.46 50.13342773 11.46 50.13342773 10.19848633 51.45214844 C9.39217773 52.27005859 8.58586914 53.08796875 7.75512695 53.93066406 C7.03510498 54.67050537 6.31508301 55.41034668 5.57324219 56.17260742 C2.7679094 58.27061398 0.72763526 58.67669821 -2.7409668 58.90332031 C-4.6159668 57.84082031 -4.6159668 57.84082031 -5.7409668 55.90332031 C-6.16942323 52.24963528 -6.21211059 50.53556405 -3.98095703 47.54150391 C-3.17859619 46.8023877 -2.37623535 46.06327148 -1.54956055 45.30175781 C-0.68782227 44.48191406 0.17391602 43.66207031 1.06176758 42.81738281 C1.97249023 41.97949219 2.88321289 41.14160156 3.8215332 40.27832031 C5.62546603 38.61041343 7.4190617 36.93123309 9.20043945 35.23925781 C10.40228882 34.13396729 10.40228882 34.13396729 11.62841797 33.00634766 C13.49614606 31.0684401 13.49614606 31.0684401 13.15600586 28.79614258 C11.74034258 25.80876169 9.42727633 23.72016238 7.0715332 21.46582031 C6.57411621 20.97863525 6.07669922 20.4914502 5.56420898 19.98950195 C2.25859846 16.77933891 -1.17431882 13.81295419 -4.7409668 10.90332031 C-6.14031693 8.10462005 -5.99362084 5.99833239 -5.7409668 2.90332031 C-4.08939656 0.05894935 -3.29066428 -0.11606868 0 0 Z " fill="#F8F8F8" transform="translate(298.740966796875,230.0966796875)"/>
<path d="M0 0 C2 2 2 2 2.38696289 4.83740234 C1.89755243 8.83729073 0.74178142 9.899578 -2.19140625 12.6015625 C-3.05314453 13.42140625 -3.91488281 14.24125 -4.80273438 15.0859375 C-5.71345703 15.92382812 -6.62417969 16.76171875 -7.5625 17.625 C-9.36643283 19.29290689 -11.1600285 20.97208722 -12.94140625 22.6640625 C-13.74263916 23.40092285 -14.54387207 24.1377832 -15.36938477 24.89697266 C-17.20435729 26.82170659 -17.20435729 26.82170659 -17.00585938 29.01367188 C-15.70144289 31.58957782 -14.08214926 33.15227332 -11.96484375 35.1171875 C-10.75151367 36.27541016 -10.75151367 36.27541016 -9.51367188 37.45703125 C-7.79803478 39.0673108 -6.07667077 40.67151067 -4.34960938 42.26953125 C-3.54201172 43.04425781 -2.73441406 43.81898438 -1.90234375 44.6171875 C-0.78073853 45.66302002 -0.78073853 45.66302002 0.36352539 46.72998047 C2.47893327 49.66434753 2.39624768 51.45840336 2 55 C0.8125 56.875 0.8125 56.875 -1 58 C-3.22949219 58.41479492 -3.22949219 58.41479492 -6 58 C-8.25801943 56.22694071 -10.15114071 54.52663222 -12.140625 52.48828125 C-12.70827576 51.92304245 -13.27592651 51.35780365 -13.86077881 50.7754364 C-15.05681774 49.57841907 -16.24666136 48.37518376 -17.43066406 47.16625977 C-19.24192417 45.32072863 -21.07591171 43.50034659 -22.9140625 41.68164062 C-24.07435482 40.51444872 -25.23325711 39.34587303 -26.390625 38.17578125 C-26.9384967 37.63286942 -27.48636841 37.08995758 -28.05084229 36.53059387 C-30.95450543 33.53575276 -33.04965805 31.29653985 -33 27 C-31.91137695 25.11108398 -31.91137695 25.11108398 -30.17578125 23.30859375 C-29.52689941 22.62265137 -28.87801758 21.93670898 -28.20947266 21.22998047 C-27.48034668 20.49408691 -26.7512207 19.75819336 -26 19 C-25.23091309 18.20609863 -24.46182617 17.41219727 -23.66943359 16.59423828 C-21.19598265 14.06235546 -18.6961005 11.55953125 -16.1875 9.0625 C-15.32962891 8.20076172 -14.47175781 7.33902344 -13.58789062 6.45117188 C-12.76869141 5.63326172 -11.94949219 4.81535156 -11.10546875 3.97265625 C-10.36449951 3.23281494 -9.62353027 2.49297363 -8.86010742 1.73071289 C-5.66662042 -1.24062579 -4.12527561 -1.13445079 0 0 Z " fill="#F9F9F9" transform="translate(243,231)"/>
</svg>
